# xmcd CD database file
#
# Track frame offsets:
#	150
#	12292
#	26550
#	38383
#	53288
#	63673
#	74784
#	90078
#	101013
#	114506
#	128197
#	140559
#	153345
#	166784
#	178338
#
# Disc length: 2570 seconds
#
# Revision: 0
# Processed by: cddbd v1.5.2PL0 Copyright (c) Steve Scherf et al.
# Submitted via: CDex 1.70beta2
#
DISCID=bf0a080f
DTITLE=Various Artist - The Country Box [CD4)
DYEAR=1900
DGENRE=Country
TTITLE0=Susan Raye - LA International Airport
TTITLE1=BJ Thomas - I'm So Lonesome I Could Cry
TTITLE2=Donna Fargo - Funny Face
TTITLE3=Ray Price - The Old Rugged Cross
TTITLE4=Charlie Walker - Pick me up on your way down
TTITLE5=Ferlin Husky - San Antonio Rose
TTITLE6=Margo Smith - You Light Up My Life
TTITLE7=Jack Green - What Locks The Door
TTITLE8=Nat Stuckey - Sweet Thang
TTITLE9=Johnny Darrell - Little Delta Church
TTITLE10=Frankie Miller - Blackland Farmer
TTITLE11=Jeanne Pruett - Uncloudy Day
TTITLE12=Johnny Russell - Catfish John
TTITLE13=Del Wood - Down Yonder
TTITLE14=Lee Greenwood - Mornin' Ride
EXTD=
EXTT0=
EXTT1=
EXTT2=
EXTT3=
EXTT4=
EXTT5=
EXTT6=
EXTT7=
EXTT8=
EXTT9=
EXTT10=
EXTT11=
EXTT12=
EXTT13=
EXTT14=
PLAYORDER=
